<?xml version="1.0" encoding="UTF-8" standalone="no"?>
<!-- Created with Inkscape (http://www.inkscape.org/) -->

<svg
   width="1080"
   height="1080"
   viewBox="0 0 1080 1080"
   version="1.1"
   id="svg1"
   inkscape:version="1.3.2 (091e20e, 2023-11-25, custom)"
   sodipodi:docname="Imagotipo-vertical.svg"
   xmlns:inkscape="http://www.inkscape.org/namespaces/inkscape"
   xmlns:sodipodi="http://sodipodi.sourceforge.net/DTD/sodipodi-0.dtd"
   xmlns="http://www.w3.org/2000/svg"
   xmlns:svg="http://www.w3.org/2000/svg">
  <sodipodi:namedview
     id="namedview1"
     pagecolor="#ffffff"
     bordercolor="#000000"
     borderopacity="0.25"
     inkscape:showpageshadow="2"
     inkscape:pageopacity="0.0"
     inkscape:pagecheckerboard="0"
     inkscape:deskcolor="#d1d1d1"
     inkscape:document-units="px"
     inkscape:zoom="0.53229427"
     inkscape:cx="634.98711"
     inkscape:cy="519.44951"
     inkscape:window-width="1920"
     inkscape:window-height="991"
     inkscape:window-x="-9"
     inkscape:window-y="-9"
     inkscape:window-maximized="1"
     inkscape:current-layer="layer1" />
  <defs
     id="defs1">
    <rect
       x="765.27893"
       y="307.89648"
       width="152.37008"
       height="103.19134"
       id="rect6" />
    <rect
       x="765.27893"
       y="307.89648"
       width="129.40578"
       height="104.8633"
       id="rect6-7" />
  </defs>
  <g
     inkscape:label="Capa 1"
     inkscape:groupmode="layer"
     id="layer1">
    <g
       id="g2"
       transform="matrix(1.1897644,0,0,1.1672988,-45.800563,-109.166)"
       style="display:inline">
      <path
         id="path3"
         style="fill:#013355;fill-opacity:1;image-rendering:optimizeQuality"
         d="m 526.87364,166.35301 c -0.88046,0.0283 -12.90136,0.31014 -27.25976,0.29394 -21.26706,-0.024 -26.39413,-0.50248 -28.75196,0.7168 -11.50119,7.02652 -8.04912,26.21617 -14.75195,41.02149 -3.76561,8.31754 -7.16183,2.70574 -26.94459,11.71235 -22.36419,10.18187 -18.8089,12.01585 -24.82299,12.2271 -5.4491,0.1914 -36.63652,-25.64371 -36.33326,-26.13439 0.21422,-0.34648 -2.18698,-0.47816 -5.33594,-0.29296 -15.4429,2.59047 -48.22656,29.43684 -48.22656,49.26757 0,3.51201 22.30706,24.52219 17.11478,33.41789 -18.47967,28.02189 -18.64494,33.02484 -25.41725,57.09723 -3.87861,13.78663 -44.32223,-3.30758 -47.01921,12.87004 -1.43331,8.59759 -7.7635,35.47624 -2.55093,57.52969 4.30438,18.21107 36.70612,1.31963 40.74698,12.55589 3.35139,9.31908 12.60965,44.51579 26.43041,69.21641 0.60302,1.93052 1.07479,3.54791 0.61523,5.47656 -1.45631,6.11419 -16.86319,21.85771 -17.84207,28.4387 -2.32982,15.66337 46.26796,54.60589 57.22307,49.99133 18.09555,-7.62228 27.23271,-20.75599 36.04734,-15.26019 17.76462,11.07599 40.74467,23.49474 62.37886,28.80335 11.01029,2.7017 5.91606,14.10047 9.2311,34.46068 1.79913,11.04981 46.3417,17.55731 75.6192,8.98672 12.03984,-4.9554 -0.1998,-37.45415 11.01511,-42.6013 21.76818,-9.99064 31.71688,-15.33606 49.22113,-24.92378 5.06319,-2.7733 8.39535,-6.58519 36.73517,16.55916 8.57755,7.00504 43.98079,-31.01287 52.68846,-46.94758 4.91539,-8.99498 -29.55607,-31.80269 -27.9409,-34.50694 12.32312,-20.63233 28.46724,-59.72649 25.52925,-88.26463 l -44.0905,-3.81184 c -10.83449,91.36536 -94.74733,142.10335 -173.71441,129.36114 -13.39056,-2.16071 -52.01392,-17.7509 -73.05627,-36.53079 -35.16958,-34.42417 -40.51331,-54.26927 -46.8029,-97.48483 -5.64719,-96.98731 90.847,-188.42094 204.62118,-135.17969 l 6.44727,3.01562 c 8.5394,-28.54574 29.4634,-44.24319 27.39456,-45.87653 -20.59231,-16.25753 -37.68657,-20.06696 -49.19233,-24.70716 -6.09342,-2.45744 -6.60492,-37.92029 -16.69325,-40.60189 z m 42.56458,204.29998 -132.01635,130.12473 c -12.35282,10.15206 19.85838,32.7703 27.29747,25.74814 45.5126,-42.96177 85.75639,-83.20203 133.23122,-131.49523 12.59937,-12.81656 -17.00441,-36.25358 -28.51234,-24.37764 z m -43.297,131.22262 c -0.0397,0.0395 -0.0626,0.0629 -0.10547,0.10547 0.0417,-0.0322 0.0699,-0.0454 0.11133,-0.0762 -0.002,-0.01 -0.004,-0.0195 -0.006,-0.0293 z m 0.3418,0.16211 c 7.5e-4,0.003 -0.005,0.005 -0.004,0.008 0.002,0.004 0.006,0.006 0.008,0.01 0.003,-0.005 0.006,-0.0104 0.01,-0.0156 -0.005,-7.7e-4 -0.009,-9e-4 -0.0137,-0.002 z m -9.58008,9.52344 c -0.0113,0.006 -0.0219,0.0133 -0.0332,0.0195 0.0124,-0.005 0.0249,-0.0106 0.0371,-0.0156 z"
         sodipodi:nodetypes="ccccccccccsssscccccccccccccccssccccccccccccccccccccccccccc" />
      <path
         style="fill:#105d86"
         d="m 468.8503,542.30929 c -15.71341,-4.35781 -30.86955,-11.10366 -44.90969,-19.39681 -7.75502,-4.58069 -20.81412,-15.10155 -21.35656,-16.55309 -0.14643,-0.39186 37.98878,-38.64972 84.74492,-85.01746 76.1081,-75.47586 91.41673,-91.92452 91.38423,-92.33676 -0.0754,-0.95658 3.91908,-6.46998 4.19881,-12.72803 2.22878,-49.8615 12.75413,-55.29135 16.42308,-62.78854 12.04564,-13.98327 25.48659,-25.14563 43.77389,-29.71397 21.3774,-5.87759 39.1422,-3.63005 50.7137,1.46978 2.0816,0.51127 3.0426,2.67455 1.517,4.51273 l -34.3208,34.34554 -17.6686,17.76784 c 26.1024,69.69178 22.3447,46.95107 8.1658,37.05202 -34.5272,-24.10511 -34.941,-24.0775 41.6913,11.73354 1.9629,0.91727 53.0584,-50.73942 52.59,-51.49732 -0.2474,-0.40031 0.7819,-1.04243 1.5516,-0.20446 14.5048,15.79164 -0.2844,129.12687 -100.1237,113.77099 0.5488,0.11255 -6.4654,-1.6811 -12.1196,3.62289 -61.35287,57.55225 -46.58284,42.80164 -151.20337,147.98038 -1.28897,1.29584 -10.17385,-0.66641 -15.05201,-2.01927 z m -7.21788,-18.23039 c 44.24356,-43.24216 88.13807,-86.90526 132.20655,-130.34873 9.41074,-22.80212 -14.15978,-25.35848 -21.68394,-20.64733 -3.44005,2.15395 -125.86429,124.48122 -129.64911,129.54642 -6.16591,8.2518 4.16759,28.11418 19.12652,21.44964 z"
         id="path5"
         sodipodi:nodetypes="aasssscsscccsssssssascssss" />
    </g>
    <path
       style="font-weight:500;font-size:64px;font-family:Roboto;-inkscape-font-specification:'Roboto, Medium';white-space:pre;fill:#083b5d;stroke-width:1.00003"
       d="m 799.68555,357.67773 v 6.21875 H 775.5293 v -6.21875 z m -21.9375,-39.28125 v 45.5 h -7.84375 v -45.5 z m 18.78125,19 v 6.125 h -21 v -6.125 z m 3,-19 v 6.25 h -24 v -6.25 z m 6.53125,0 h 16.09375 q 5.1875,0 8.84375,1.5625 3.65625,1.5625 5.59375,4.625 1.96875,3.03125 1.96875,7.5 0,3.40625 -1.25,6 -1.25,2.59375 -3.53125,4.375 -2.28125,1.75 -5.4375,2.71875 l -2.375,1.15625 h -14.46875 l -0.0625,-6.21875 h 10.84375 q 2.8125,0 4.6875,-1 1.875,-1 2.8125,-2.71875 0.96875,-1.75 0.96875,-3.9375 0,-2.375 -0.9375,-4.125 -0.90625,-1.78125 -2.8125,-2.71875 -1.90625,-0.96875 -4.84375,-0.96875 h -8.25 v 39.25 h -7.84375 z m 25.96875,45.5 -10.6875,-20.4375 8.21875,-0.0312 10.84375,20.0625 v 0.40625 z m 31.59375,-16.96875 H 851.7793 v -6.21875 h 11.84375 q 3.09375,0 5,-1 1.90625,-1 2.78125,-2.75 0.90625,-1.78125 0.90625,-4.0625 0,-2.15625 -0.90625,-4.03125 -0.875,-1.90625 -2.78125,-3.0625 -1.90625,-1.15625 -5,-1.15625 h -9.4375 v 39.25 h -7.84375 v -45.5 h 17.28125 q 5.28125,0 8.96875,1.875 3.71875,1.84375 5.65625,5.125 1.9375,3.25 1.9375,7.4375 0,4.40625 -1.9375,7.5625 -1.9375,3.15625 -5.65625,4.84375 -3.6875,1.6875 -8.96875,1.6875 z"
       id="text6"
       transform="matrix(5.1538957,0,0,5.0563147,-3879.4875,-849.21113)"
       aria-label="ERP" />
    <path
       style="font-weight:300;font-size:64px;font-family:Roboto;-inkscape-font-specification:'Roboto, Light';white-space:pre;fill:#2f85b6"
       d="m 790.74805,357.83398 v -17.4375 q 0,-2.40625 -1,-4.15625 -1,-1.75 -2.9375,-2.6875 -1.9375,-0.9375 -4.78125,-0.9375 -2.625,0 -4.6875,0.9375 -2.03125,0.90625 -3.21875,2.46875 -1.15625,1.53125 -1.15625,3.40625 l -3.71875,-0.0312 q 0,-1.90625 0.90625,-3.6875 0.9375,-1.78125 2.65625,-3.1875 1.71875,-1.40625 4.09375,-2.21875 2.40625,-0.84375 5.3125,-0.84375 3.59375,0 6.34375,1.21875 2.78125,1.21875 4.34375,3.65625 1.59375,2.4375 1.59375,6.125 v 16.34375 q 0,1.75 0.25,3.625 0.28125,1.875 0.78125,3.0625 v 0.40625 h -4 q -0.375,-1.125 -0.59375,-2.8125 -0.1875,-1.71875 -0.1875,-3.25 z m 0.875,-13.625 0.0625,2.875 h -7.3125 q -2.875,0 -5.15625,0.53125 -2.25,0.5 -3.8125,1.46875 -1.5625,0.96875 -2.40625,2.375 -0.8125,1.375 -0.8125,3.125 0,1.8125 0.90625,3.3125 0.90625,1.5 2.625,2.375 1.71875,0.875 4.0625,0.875 3.09375,0 5.46875,-1.125 2.40625,-1.15625 3.96875,-3.03125 1.5625,-1.875 2.09375,-4.09375 l 1.625,2.15625 q -0.40625,1.53125 -1.5,3.1875 -1.0625,1.65625 -2.78125,3.09375 -1.6875,1.40625 -4.03125,2.3125 -2.3125,0.875 -5.28125,0.875 -3.28125,0 -5.75,-1.25 -2.46875,-1.28125 -3.8125,-3.4375 -1.34375,-2.1875 -1.34375,-4.9375 0,-2.46875 1.0625,-4.4375 1.0625,-2 3.0625,-3.375 2,-1.40625 4.84375,-2.125 2.875,-0.75 6.4375,-0.75 z m 17.0625,-14.125 v 33.8125 h -3.75 v -33.8125 z m -4.40625,-9.78125 q 0,-1.0625 0.65625,-1.78125 0.6875,-0.75 1.90625,-0.75 1.1875,0 1.875,0.75 0.71875,0.71875 0.71875,1.78125 0,1.03125 -0.71875,1.78125 -0.6875,0.71875 -1.875,0.71875 -1.21875,0 -1.90625,-0.71875 -0.65625,-0.75 -0.65625,-1.78125 z m 18.3125,15.375 v 28.21875 h -3.71875 v -33.8125 h 3.65625 z m 12,-5.84375 -0.125,3.4375 q -0.59375,-0.0937 -1.1875,-0.15625 -0.59375,-0.0625 -1.3125,-0.0625 -2.40625,0 -4.25,0.90625 -1.84375,0.875 -3.09375,2.46875 -1.21875,1.5625 -1.875,3.65625 -0.65625,2.09375 -0.75,4.53125 l -1.375,0.5 q 0,-3.3125 0.6875,-6.15625 0.6875,-2.84375 2.09375,-4.96875 1.40625,-2.15625 3.5625,-3.34375 2.1875,-1.1875 5.15625,-1.1875 0.6875,0 1.375,0.125 0.71875,0.0937 1.09375,0.25 z"
       id="text6-6"
       transform="matrix(5.1538957,0,0,5.0563147,-3286.6487,-850.72833)"
       aria-label="air" />
    <text
       xml:space="preserve"
       style="font-style:normal;font-variant:normal;font-weight:500;font-stretch:normal;font-size:315.503px;font-family:Roboto;-inkscape-font-specification:'Roboto, Medium';font-variant-ligatures:normal;font-variant-caps:normal;font-variant-numeric:normal;font-variant-east-asian:normal;display:none;fill:#2f85b6;fill-opacity:0.249423;stroke-width:13.3868"
       x="-550.3457"
       y="956.15601"
       id="text5"
       transform="scale(-0.97565107,1.0249566)"><tspan
         sodipodi:role="line"
         id="tspan5"
         x="-550.3457"
         y="956.15601"
         style="stroke-width:13.3868">E</tspan></text>
  </g>
</svg>
