<?xml version="1.0" encoding="UTF-8" standalone="no"?>
<!-- Created with Inkscape (http://www.inkscape.org/) -->

<svg
   width="1080mm"
   height="500mm"
   viewBox="0 0 1080 500"
   version="1.1"
   id="svg1"
   inkscape:version="1.3.2 (091e20e, 2023-11-25, custom)"
   sodipodi:docname="logotipo_letras.svg"
   xmlns:inkscape="http://www.inkscape.org/namespaces/inkscape"
   xmlns:sodipodi="http://sodipodi.sourceforge.net/DTD/sodipodi-0.dtd"
   xmlns="http://www.w3.org/2000/svg"
   xmlns:svg="http://www.w3.org/2000/svg">
  <sodipodi:namedview
     id="namedview1"
     pagecolor="#ffffff"
     bordercolor="#000000"
     borderopacity="0.25"
     inkscape:showpageshadow="2"
     inkscape:pageopacity="0.0"
     inkscape:pagecheckerboard="0"
     inkscape:deskcolor="#d1d1d1"
     inkscape:document-units="mm"
     inkscape:zoom="0.17304819"
     inkscape:cx="1820.3022"
     inkscape:cy="910.1511"
     inkscape:window-width="1920"
     inkscape:window-height="991"
     inkscape:window-x="-9"
     inkscape:window-y="-9"
     inkscape:window-maximized="1"
     inkscape:current-layer="layer1" />
  <defs
     id="defs1" />
  <g
     inkscape:label="Capa 1"
     inkscape:groupmode="layer"
     id="layer1">
    <path
       style="font-weight:500;font-size:64px;font-family:Roboto;-inkscape-font-specification:'Roboto, Medium';white-space:pre;fill:#083b5d;stroke-width:1.3507"
       d="m 268.74134,319.66055 v 28.30186 H 155.75197 V 319.66055 Z M 166.13003,140.8894 V 347.96241 H 129.44138 V 140.8894 Z m 87.84814,86.47006 v 27.87521 h -98.2262 v -27.87521 z m 14.0323,-86.47006 v 28.4441 h -112.2585 v -28.4441 z m 30.54953,0 h 75.27752 q 24.2642,0 41.36608,7.11102 17.10189,7.11102 26.16442,21.04864 9.2087,13.79538 9.2087,34.1329 0,15.50205 -5.84679,27.30635 -5.84681,11.80428 -16.5172,19.91087 -10.6704,7.96432 -25.43357,12.37316 l -11.10892,5.26217 h -67.67667 l -0.29236,-28.30189 h 50.72097 q 13.15531,0 21.92551,-4.55105 8.77019,-4.55105 13.15528,-12.37316 4.53126,-7.96435 4.53126,-17.91979 0,-10.80876 -4.38508,-18.77311 -4.23894,-8.10656 -13.15531,-12.37319 -8.91635,-4.40882 -22.65632,-4.40882 H 335.24864 V 347.96241 H 298.56 Z m 121.4672,207.07301 -49.9901,-93.01218 38.44267,-0.14208 50.72097,91.30555 v 1.84884 z m 147.77782,-77.22572 h -55.39841 v -28.30186 h 55.39841 q 14.47081,0 23.38718,-4.55105 8.91638,-4.55108 13.00913,-12.51541 4.23891,-8.10658 4.23891,-18.48866 0,-9.81323 -4.23891,-18.34644 -4.09275,-8.67545 -13.00913,-13.93762 -8.91637,-5.26215 -23.38718,-5.26215 H 523.66168 V 347.96241 H 486.97304 V 140.8894 h 80.83198 q 24.70271,0 41.95077,8.53324 17.39422,8.391 26.45675,23.32414 9.06255,14.79093 9.06255,33.84848 0,20.0531 -9.06255,34.41735 -9.06253,14.36427 -26.45675,22.04418 -17.24806,7.6799 -41.95077,7.6799 z"
       id="text6"
       clip-path="none"
       aria-label="ERP" />
    <path
       style="font-weight:300;font-size:64px;font-family:Roboto;-inkscape-font-specification:'Roboto, Light';white-space:pre;fill:#2f85b6;stroke-width:1.35066"
       d="m 777.70431,319.006 v -79.35902 q 0,-10.95099 -4.67744,-18.91534 -4.67744,-7.96435 -13.73999,-12.23096 -9.06251,-4.26661 -22.36397,-4.26661 -12.27829,0 -21.92548,4.26661 -9.5011,4.1244 -15.05554,11.23542 -5.4083,6.96881 -5.4083,15.50204 l -17.3942,-0.14208 q 0,-8.67544 4.23896,-16.78203 4.38506,-8.10656 12.4244,-14.50648 8.03938,-6.39992 19.14827,-10.09764 11.25507,-3.83996 24.84891,-3.83996 16.80951,0 29.6725,5.5466 13.00913,5.54659 20.31761,16.63979 7.45464,11.09319 7.45464,27.87522 v 74.38131 q 0,7.96435 1.1694,16.49756 1.31554,8.53324 3.65424,13.93762 v 1.84896 h -18.70974 q -1.75408,-5.11994 -2.77725,-12.79985 -0.87702,-7.82214 -0.87702,-14.79095 z m 4.09276,-62.00814 0.29237,13.08429 h -34.20379 q -13.44761,0 -24.11804,2.41775 -10.52426,2.27553 -17.83273,6.68437 -7.30849,4.40884 -11.25507,10.80874 -3.80043,6.25771 -3.80043,14.22206 0,8.24879 4.23892,15.07537 4.23895,6.82658 12.27828,10.80876 8.03934,3.98217 19.00208,3.98217 14.47083,0 25.57975,-5.11994 11.25505,-5.26215 18.56359,-13.79539 7.30847,-8.53321 9.79334,-18.63088 l 7.60087,9.81323 q -1.90019,6.96878 -7.01616,14.50648 -4.96975,7.53767 -13.00915,14.07983 -7.89316,6.39992 -18.85592,10.52432 -10.81656,3.98216 -24.70267,3.98216 -15.34787,0 -26.89529,-5.68882 -11.54745,-5.83104 -17.83275,-15.64424 -6.2853,-9.95545 -6.2853,-22.47085 0,-11.23542 4.96982,-20.19531 4.96975,-9.1021 14.32463,-15.35981 9.35486,-6.39993 22.65632,-9.67099 13.44764,-3.4133 30.11104,-3.4133 z m 79.80876,-64.28365 V 346.59677 H 844.06546 V 192.71421 Z M 840.9959,148.1992 q 0,-4.83549 3.06956,-8.10656 3.21574,-3.4133 8.91635,-3.4133 5.55451,0 8.77024,3.4133 3.36188,3.27107 3.36188,8.10656 0,4.69329 -3.36188,8.10656 -3.21573,3.27107 -8.77024,3.27107 -5.70061,0 -8.91635,-3.27107 -3.06956,-3.41327 -3.06956,-8.10656 z m 85.65556,69.97249 v 128.42508 h -17.3942 V 192.71421 h 17.1018 z m 56.1293,-26.59525 -0.5847,15.64426 q -2.7773,-0.42644 -5.5545,-0.7111 -2.7772,-0.28444 -6.1391,-0.28444 -11.2551,0 -19.8791,4.12439 -8.6241,3.98217 -14.4708,11.23542 -5.7006,7.11102 -8.7702,16.6398 -3.0696,9.52878 -3.5081,20.62196 l -6.4315,2.27555 q 0,-15.0754 3.2158,-28.01745 3.2157,-12.94206 9.7934,-22.61307 6.5776,-9.8132 16.6633,-15.21758 10.2319,-5.40438 24.118,-5.40438 3.2158,0 6.4315,0.56889 3.3619,0.42644 5.116,1.13775 z"
       id="text6-6"
       clip-path="none"
       aria-label="air" />
  </g>
</svg>
